<svg width="22" height="22" viewBox="0 0 32 32" fill="none" xmlns="http://www.w3.org/2000/svg">
<g clip-path="url(#clip0_1_1241)">
<path d="M21.3259 16.0001L31.7255 5.60046C32.0916 5.23432 32.0916 4.6407 31.7255 4.27461C31.3593 3.90851 30.7657 3.90846 30.3996 4.27461L20 14.6742L9.60046 4.27461C9.23432 3.90846 8.6407 3.90846 8.27461 4.27461C7.90851 4.64075 7.90846 5.23437 8.27461 5.60046L18.6741 16L8.27461 26.3996C7.90846 26.7657 7.90846 27.3594 8.27461 27.7255C8.45765 27.9085 8.69761 28 8.93756 28C9.17751 28 9.41742 27.9085 9.60051 27.7255L20 17.3259L30.3995 27.7255C30.5826 27.9085 30.8225 28 31.0625 28C31.3025 28 31.5424 27.9085 31.7255 27.7255C32.0916 27.3593 32.0916 26.7657 31.7255 26.3996L21.3259 16.0001Z" fill="#FF6600"/>
</g>
<defs>
<clipPath id="clip0_1_1241">
<rect width="32" height="32" fill="white"/>
</clipPath>
</defs>
</svg>
