<svg width="16" height="32" viewBox="0 0 16 32" fill="none" xmlns="http://www.w3.org/2000/svg">
<path d="M12.0095 10.1878C11.9066 10.2909 11.7845 10.3423 11.6435 10.3423L4.35643 10.3423C4.21537 10.3423 4.09342 10.2909 3.99038 10.1878C3.88735 10.0847 3.83588 9.96274 3.83588 9.82176C3.83588 9.68082 3.88735 9.55887 3.99038 9.4558L7.63395 5.81224C7.73709 5.70921 7.85904 5.65762 7.99999 5.65762C8.14094 5.65762 8.263 5.70921 8.36595 5.81224L12.0095 9.45583C12.1124 9.55887 12.1641 9.68082 12.1641 9.82179C12.1641 9.96274 12.1124 10.0847 12.0095 10.1878Z" fill="white"/>
<path d="M3.99049 21.8122C4.09343 21.7091 4.21547 21.6577 4.35647 21.6577H11.6436C11.7846 21.6577 11.9066 21.7091 12.0096 21.8122C12.1126 21.9153 12.1641 22.0373 12.1641 22.1782C12.1641 22.3192 12.1126 22.4411 12.0096 22.5442L8.36605 26.1878C8.26291 26.2908 8.14096 26.3424 8.00001 26.3424C7.85906 26.3424 7.737 26.2908 7.63405 26.1878L3.99049 22.5442C3.88757 22.4411 3.83589 22.3192 3.83589 22.1782C3.83589 22.0373 3.88757 21.9153 3.99049 21.8122Z" fill="white"/>
</svg>
