<svg width="24" height="24" viewBox="0 0 32 32" fill="none" xmlns="http://www.w3.org/2000/svg">
<g clip-path="url(#clip0_1_1421)">
<path d="M27 0H22.25C19.493 0 17.25 2.243 17.25 5V9.75C17.25 12.507 19.493 14.75 22.25 14.75H27C29.757 14.75 32 12.507 32 9.75V5C32 2.243 29.757 0 27 0ZM29.5 9.75C29.5 11.1285 28.3785 12.25 27 12.25H22.25C20.8715 12.25 19.75 11.1285 19.75 9.75V5C19.75 3.6215 20.8715 2.5 22.25 2.5H27C28.3785 2.5 29.5 3.6215 29.5 5V9.75Z" fill="black"/>
<path d="M9.75 0H5C2.243 0 0 2.243 0 5V9.75C0 12.507 2.243 14.75 5 14.75H9.75C12.507 14.75 14.75 12.507 14.75 9.75V5C14.75 2.243 12.507 0 9.75 0ZM12.25 9.75C12.25 11.1285 11.1285 12.25 9.75 12.25H5C3.6215 12.25 2.5 11.1285 2.5 9.75V5C2.5 3.6215 3.6215 2.5 5 2.5H9.75C11.1285 2.5 12.25 3.6215 12.25 5V9.75Z" fill="black"/>
<path d="M9.75 17.25H5C2.243 17.25 0 19.493 0 22.25V27C0 29.757 2.243 32 5 32H9.75C12.507 32 14.75 29.757 14.75 27V22.25C14.75 19.493 12.507 17.25 9.75 17.25ZM12.25 27C12.25 28.3785 11.1285 29.5 9.75 29.5H5C3.6215 29.5 2.5 28.3785 2.5 27V22.25C2.5 20.8715 3.6215 19.75 5 19.75H9.75C11.1285 19.75 12.25 20.8715 12.25 22.25V27Z" fill="black"/>
<path d="M30.75 25.75C30.0596 25.75 29.5 26.3096 29.5 27C29.5 28.3785 28.3785 29.5 27 29.5H22.25C20.8715 29.5 19.75 28.3785 19.75 27V22.25C19.75 20.8715 20.8715 19.75 22.25 19.75H27C27.9941 19.75 28.8938 20.3387 29.2922 21.2498C29.5687 21.8823 30.3058 22.1708 30.9383 21.8943C31.5709 21.6176 31.8594 20.8806 31.5828 20.2481C30.7864 18.4268 28.9875 17.25 27 17.25H22.25C19.493 17.25 17.25 19.493 17.25 22.25V27C17.25 29.757 19.493 32 22.25 32H27C29.757 32 32 29.757 32 27C32 26.3096 31.4404 25.75 30.75 25.75Z" fill="black"/>
</g>
<defs>
<clipPath id="clip0_1_1421">
<rect width="32" height="32" fill="white"/>
</clipPath>
</defs>
</svg>
