<svg width="209" height="172" viewBox="0 0 209 172" fill="none" xmlns="http://www.w3.org/2000/svg">
<g opacity="0.3" clip-path="url(#clip0_8_1138)">
<path d="M0 129.057C0 152.771 15.6216 172 34.8875 172H69.6357C69.6357 148.286 54.0141 129.057 34.7482 129.057H0Z" fill="#505050"/>
<path d="M0.000183105 129.057C0.000183105 141.172 7.98508 151 17.8269 151H34.8645C34.8645 138.886 26.8796 129.057 17.0377 129.057H0.000183105Z" fill="#F5A793"/>
<path d="M6.10352e-05 85.2572C6.10352e-05 108.971 15.6217 128.2 34.8875 128.2H69.6358C69.6358 104.486 54.0141 85.2572 34.7483 85.2572H6.10352e-05Z" fill="#E2DDD3"/>
<path d="M34.8177 106.229C34.8177 118.343 42.8026 128.171 52.6444 128.171H69.682C69.682 116.057 61.6971 106.229 51.8552 106.229H34.8177Z" fill="#F9D34B"/>
<path d="M69.6125 128.114C69.6125 140.229 77.5975 150.057 87.4393 150.057H104.477C104.477 137.943 96.492 128.114 86.6501 128.114H69.6125Z" fill="#F9D34B"/>
<path d="M87.0679 150.057C87.0679 162.171 95.0295 172 104.895 172H121.932C121.932 159.886 113.947 150.057 104.105 150.057H87.0679Z" fill="#F5A793"/>
<path d="M6.10352e-05 39.8856C19.1499 39.8856 34.6554 58.9999 34.6554 82.5428C34.6554 83.3999 34.6322 84.2571 34.5858 85.1142H6.10352e-05V39.8856Z" fill="#FF6600"/>
<path d="M139.341 0.857132C158.05 0.857132 173.207 18.7714 173.207 40.8572C173.207 41.6572 173.184 42.4857 173.137 43.2572H139.341V0.857132Z" fill="#FF6600"/>
<path d="M207.764 42.9714C207.764 66 193.21 84.6571 175.267 84.6571C174.617 84.6571 173.944 84.6285 173.317 84.5714V42.9428H207.764V42.9714Z" fill="#FF6600"/>
<path d="M69.5428 64.4856C69.5428 52.7298 61.8005 43.1999 52.2499 43.1999C42.6993 43.1999 34.957 52.7298 34.957 64.4856C34.957 76.2414 42.6993 85.7713 52.2499 85.7713C61.8005 85.7713 69.5428 76.2414 69.5428 64.4856Z" fill="#F9D34B"/>
<path d="M61.9988 64.4856C61.9988 57.8582 57.634 52.4856 52.2498 52.4856C46.8656 52.4856 42.5008 57.8582 42.5008 64.4856C42.5008 71.1131 46.8656 76.4857 52.2498 76.4857C57.634 76.4857 61.9988 71.1131 61.9988 64.4856Z" fill="#803124"/>
<path d="M68.8468 8.99843e-05C78.6886 8.99843e-05 86.6735 9.82865 86.6735 21.9429V42.9144C76.8317 42.9144 68.8468 33.0858 68.8468 20.9715V8.99843e-05Z" fill="#505050"/>
<path d="M86.7429 21.743C96.5848 21.743 104.57 31.5716 104.57 43.6859V64.6573C94.7278 64.6573 86.7429 54.8288 86.7429 42.7145V21.743Z" fill="#F5A793"/>
<path d="M69.6824 128.172C69.6824 116.057 77.6673 106.229 87.5091 106.229H104.547C104.547 118.343 96.5618 128.172 86.7199 128.172H69.6824V128.172Z" fill="#505050"/>
<path d="M69.6819 84.7713C69.6819 96.6285 77.4811 106.228 87.1141 106.228H104.546V84.7713C104.546 72.9142 96.747 63.3141 87.1141 63.3141C77.5043 63.2856 69.6819 72.9142 69.6819 84.7713Z" fill="#FF6600"/>
<path d="M100.16 11.1144C100.16 7.53241 97.8006 4.62866 94.8906 4.62866C91.9805 4.62866 89.6215 7.53241 89.6215 11.1144C89.6215 14.6963 91.9805 17.6 94.8906 17.6C97.8006 17.6 100.16 14.6963 100.16 11.1144Z" fill="#FF6600"/>
<path d="M82.8665 160.772C82.8665 157.552 80.7465 154.943 78.1313 154.943C75.5161 154.943 73.3961 157.552 73.3961 160.772C73.3961 163.991 75.5161 166.6 78.1313 166.6C80.7465 166.6 82.8665 163.991 82.8665 160.772Z" fill="#FF6600"/>
<path d="M118.079 139.971C118.079 136.452 115.762 133.6 112.903 133.6C110.044 133.6 107.727 136.452 107.727 139.971C107.727 143.49 110.044 146.343 112.903 146.343C115.762 146.343 118.079 143.49 118.079 139.971Z" fill="#77BD74"/>
<path d="M83.4699 54.0285C83.4699 50.4939 81.142 47.6285 78.2705 47.6285C75.3989 47.6285 73.071 50.4939 73.071 54.0285C73.071 57.5631 75.3989 60.4285 78.2705 60.4285C81.142 60.4285 83.4699 57.5631 83.4699 54.0285Z" fill="#F5A793"/>
<path d="M104.477 43.7714C123.742 43.7714 139.364 63 139.364 86.7142V129.486C120.098 129.486 104.477 110.257 104.477 86.5428V43.7714V43.7714Z" fill="#E2DDD3"/>
<path d="M121.515 86.5428C131.356 86.5428 139.341 96.3714 139.341 108.486V129.457C129.499 129.457 121.515 119.629 121.515 107.514V86.5428Z" fill="#FF6600"/>
<path d="M139.341 21.7429C139.341 9.88579 131.542 0.285796 121.909 0.285796H104.477V21.7429C104.477 33.6001 112.276 43.2001 121.909 43.2001C131.542 43.2001 139.341 33.6001 139.341 21.7429Z" fill="#F9D34B"/>
<path d="M118.079 139.971C118.079 136.452 115.762 133.6 112.903 133.6C110.044 133.6 107.727 136.452 107.727 139.971C107.727 143.49 110.044 146.343 112.903 146.343C115.762 146.343 118.079 143.49 118.079 139.971Z" fill="#F5A793"/>
<path d="M134.397 139.971C134.397 136.453 132.079 133.6 129.221 133.6C126.362 133.6 124.044 136.453 124.044 139.971C124.044 143.49 126.362 146.343 129.221 146.343C132.079 146.343 134.397 143.49 134.397 139.971Z" fill="#FF6600"/>
<path d="M134.397 160.257C134.397 156.738 132.079 153.886 129.22 153.886C126.362 153.886 124.044 156.738 124.044 160.257C124.044 163.776 126.362 166.629 129.22 166.629C132.079 166.629 134.397 163.776 134.397 160.257Z" fill="#505050"/>
<path d="M209 86.5428C209 110.257 193.378 129.486 174.113 129.486H139.388C139.388 105.771 155.009 86.5428 174.275 86.5428H209Z" fill="#E2DDD3"/>
<path d="M174.275 107.514C174.275 119.628 166.29 129.457 156.448 129.457H139.411C139.411 117.343 147.396 107.514 157.237 107.514H174.275Z" fill="#FEC700"/>
<path d="M139.341 86.5429C158.05 86.5429 173.207 68.6286 173.207 46.5429C173.207 45.7429 173.184 44.9143 173.137 44.1429H139.341V86.5429Z" fill="#505050"/>
<path d="M139.341 65.6C149.253 65.6 157.284 56.1143 157.284 44.4C157.284 43.9714 157.284 43.5428 157.261 43.1142H139.341V65.6V65.6Z" fill="#F5A793"/>
<path d="M173.23 172C191.939 172 207.096 154.086 207.096 132C207.096 131.2 207.073 130.371 207.027 129.6H173.23V172Z" fill="#F9D34B"/>
<path d="M173.231 152.057C183.142 152.057 191.174 142.571 191.174 130.857C191.174 130.428 191.174 130 191.15 129.571H173.231V152.057V152.057Z" fill="#505050"/>
<path d="M173.23 172C154.522 172 139.364 154.086 139.364 132C139.364 131.2 139.387 130.371 139.434 129.6H173.254V172H173.23Z" fill="#FF6600"/>
</g>
<defs>
<clipPath id="clip0_8_1138">
<rect width="172" height="209" fill="white" transform="matrix(0 -1 1 0 0 172)"/>
</clipPath>
</defs>
</svg>
