<svg width="12" height="12" viewBox="0 0 12 12" fill="none" xmlns="http://www.w3.org/2000/svg">
<g clip-path="url(#clip0_8_1015)">
<path d="M7.07801 0C4.36408 0 2.15613 2.20795 2.15613 4.92188C2.15613 6.11588 2.58349 7.21193 3.29329 8.06512L0.138303 11.1987C-0.0453771 11.3811 -0.0463849 11.6779 0.136029 11.8616C0.22767 11.9538 0.348139 12 0.468631 12C0.588045 12 0.707506 11.9546 0.798935 11.8638L3.95824 8.72602C4.80804 9.42417 5.89495 9.84375 7.07801 9.84375C7.92237 9.84375 8.75557 9.62618 9.48747 9.21455C9.71313 9.08766 9.79317 8.80186 9.66626 8.5762C9.53937 8.35057 9.25357 8.27048 9.02791 8.39742C8.43602 8.7303 7.76175 8.90625 7.07801 8.90625C4.88102 8.90625 3.09363 7.11886 3.09363 4.92188C3.09363 2.72489 4.88102 0.9375 7.07801 0.9375C9.27499 0.9375 11.0624 2.72489 11.0624 4.92188C11.0624 5.61401 10.8823 6.29552 10.5417 6.89276C10.4134 7.11764 10.4917 7.40391 10.7166 7.53218C10.9415 7.66043 11.2277 7.58213 11.356 7.35727C11.7772 6.61875 11.9999 5.77662 11.9999 4.92188C11.9999 2.20795 9.79193 0 7.07801 0Z" fill="#A8A8A8"/>
</g>
<defs>
<clipPath id="clip0_8_1015">
<rect width="12" height="12" fill="white"/>
</clipPath>
</defs>
</svg>
